<?xml version="1.0" encoding="UTF-8" standalone="no"?>
<!-- Uploaded to: SVG Repo, www.svgrepo.com, Generator: SVG Repo Mixer Tools -->

<svg
   width="788.7832"
   height="788.7832"
   viewBox="0 -3 1015.5584 1015.5584"
   class="icon"
   version="1.1"
   id="svg14"
   sodipodi:docname="oil_pressure.svg"
   inkscape:version="1.1.2 (0a00cf5339, 2022-02-04)"
   xmlns:inkscape="http://www.inkscape.org/namespaces/inkscape"
   xmlns:sodipodi="http://sodipodi.sourceforge.net/DTD/sodipodi-0.dtd"
   xmlns="http://www.w3.org/2000/svg"
   xmlns:svg="http://www.w3.org/2000/svg">
  <defs
     id="defs18" />
  <sodipodi:namedview
     id="namedview16"
     pagecolor="#ffffff"
     bordercolor="#666666"
     borderopacity="1.0"
     inkscape:pageshadow="2"
     inkscape:pageopacity="0.0"
     inkscape:pagecheckerboard="0"
     showgrid="false"
     fit-margin-top="0"
     fit-margin-left="0"
     fit-margin-right="0"
     fit-margin-bottom="0"
     inkscape:zoom="0.89875"
     inkscape:cx="376.07789"
     inkscape:cy="245.34075"
     inkscape:window-width="1701"
     inkscape:window-height="1386"
     inkscape:window-x="5565"
     inkscape:window-y="40"
     inkscape:window-maximized="1"
     inkscape:current-layer="svg14" />
  <path
     d="m 239.63862,705.62295 11.45833,-155.05 -234.600009,-92.17083 100.050009,-154.46667 170.9625,76.88333 v 107.23334 h -4.3 l 4.25833,1.17083 -13.6,184.0125 377.66667,-6.97917 211.46249,-277.17083 c 9.22917,-12.87083 32.8375,-42.03333 55.79167,-41.79583 9.125,0.15833 17.08333,4.67083 22.40833,12.7 16.39167,24.39166 24.04583,68.32916 24.87083,73.25833 l -31.32083,5.20833 c -1.83749,-11.00416 -8.60833,-41.94166 -18.51666,-58.56666 -6.51251,3.3875 -18.79166,15.65416 -27.55833,27.875 l -0.28333,0.3875 -220.91667,289.5625 z M 64.263608,443.05628 241.59278,512.72295 255.75945,484.31045 V 401.35212 L 128.38028,344.06878 Z"
     fill="#332c2b"
     id="path6" />
  <path
     d="m 532.67816,537.13545 -55.09583,-63.06667 -238.89584,0.6875 -0.0917,-31.75 253.375,-0.72916 49.31666,56.45416 315.2,-137.66666 12.7125,29.1 z M 290.84483,330.44795 h 179.05416 v 31.75 H 290.84483 Z"
     fill="#332c2b"
     id="path8" />
  <path
     d="m 364.96983,458.85628 -0.47084,-22.67916 -0.004,-89.85417 h 31.75 v 89.525 l 0.47083,22.35 z"
     fill="#332c2b"
     id="path10" />
  <path
     d="m 916.10733,696.91462 c -61.25,0 -83.075,-37.72917 -83.075,-73.0375 0,-19.07917 13.0375,-34.87084 28.1375,-53.1625 14.85416,-17.99584 31.69166,-38.39167 39.7,-65.74167 l 15.23333,-52.04167 15.23333,52.0375 c 8.00834,27.35 24.8125,47.74584 39.6375,65.74167 15.07087,18.29583 28.08747,34.09167 28.08747,53.16667 0.01,35.30833 -21.78747,73.0375 -82.95413,73.0375 z m -0.004,-147.80417 c -9.4875,16.43333 -20.69583,30.00833 -30.45,41.82083 -10.73333,13 -20.875,25.27917 -20.875,32.94584 0,18.8375 8.90833,41.29166 51.325,41.29166 42.325,0 51.2125,-22.45833 51.2125,-41.29166 0,-7.67917 -10.12917,-19.96667 -20.84583,-32.975 -9.71667,-11.80834 -20.89584,-25.37084 -30.36667,-41.79167 z"
     fill="#332c2b"
     id="path12" />
</svg>
